<svg viewBox="0 0 560 480" xmlns="http://www.w3.org/2000/svg" role="img" aria-label="Zwei Kaffeetassen, aus denen ein Herz aufsteigt: Zeit füreinander">
  <defs>
    <linearGradient id="bg2" x1="0" y1="0" x2="1" y2="1">
      <stop offset="0" stop-color="#f5ecdf"/>
      <stop offset="1" stop-color="#fdfbf7"/>
    </linearGradient>
  </defs>

  <rect x="30" y="30" width="500" height="420" rx="40" fill="url(#bg2)"/>

  <!-- Dampf -->
  <path d="M200 250 C185 230 215 215 200 195 M360 250 C375 230 345 215 360 195" stroke="#c9b8a6" stroke-width="7" fill="none" stroke-linecap="round"/>
  <!-- Herz -->
  <path d="M280 205 C232 172 232 120 262 120 C272 120 278 128 280 136 C282 128 288 120 298 120 C328 120 328 172 280 205 Z" fill="#d0694a"/>

  <!-- Tisch -->
  <rect x="70" y="372" width="420" height="18" rx="9" fill="#c4a688"/>

  <!-- Tasse links -->
  <ellipse cx="200" cy="368" rx="78" ry="10" fill="#e3e8ef"/>
  <path d="M146 300 a20 20 0 1 0 0 40" stroke="#2b5487" stroke-width="10" fill="none"/>
  <path d="M146 266 H254 V318 Q254 362 214 362 H186 Q146 362 146 318 Z" fill="#2b5487"/>
  <rect x="146" y="266" width="108" height="10" fill="#173a66"/>

  <!-- Tasse rechts -->
  <ellipse cx="360" cy="368" rx="78" ry="10" fill="#f5e1d6"/>
  <path d="M414 300 a20 20 0 1 1 0 40" stroke="#d0694a" stroke-width="10" fill="none"/>
  <path d="M306 266 H414 V318 Q414 362 374 362 H346 Q306 362 306 318 Z" fill="#d0694a"/>
  <rect x="306" y="266" width="108" height="10" fill="#a84b33"/>
</svg>
